<svg xmlns:xlink="http://www.w3.org/1999/xlink" width="75ex" height="20.509ex" style="font-size: 15px; vertical-align: -10.171ex; max-width: 450;" viewBox="0 -4451.1 32291.5 8830.4" role="img" focusable="false" xmlns="http://www.w3.org/2000/svg">
<defs>
<path stroke-width="1" id="E1-MJMATHI-43" d="M50 252Q50 367 117 473T286 641T490 704Q580 704 633 653Q642 643 648 636T656 626L657 623Q660 623 684 649Q691 655 699 663T715 679T725 690L740 705H746Q760 705 760 698Q760 694 728 561Q692 422 692 421Q690 416 687 415T669 413H653Q647 419 647 422Q647 423 648 429T650 449T651 481Q651 552 619 605T510 659Q484 659 454 652T382 628T299 572T226 479Q194 422 175 346T156 222Q156 108 232 58Q280 24 350 24Q441 24 512 92T606 240Q610 253 612 255T628 257Q648 257 648 248Q648 243 647 239Q618 132 523 55T319 -22Q206 -22 128 53T50 252Z"></path>
<path stroke-width="1" id="E1-MJMATHI-68" d="M137 683Q138 683 209 688T282 694Q294 694 294 685Q294 674 258 534Q220 386 220 383Q220 381 227 388Q288 442 357 442Q411 442 444 415T478 336Q478 285 440 178T402 50Q403 36 407 31T422 26Q450 26 474 56T513 138Q516 149 519 151T535 153Q555 153 555 145Q555 144 551 130Q535 71 500 33Q466 -10 419 -10H414Q367 -10 346 17T325 74Q325 90 361 192T398 345Q398 404 354 404H349Q266 404 205 306L198 293L164 158Q132 28 127 16Q114 -11 83 -11Q69 -11 59 -2T48 16Q48 30 121 320L195 616Q195 629 188 632T149 637H128Q122 643 122 645T124 664Q129 683 137 683Z"></path>
<path stroke-width="1" id="E1-MJMAIN-28" d="M94 250Q94 319 104 381T127 488T164 576T202 643T244 695T277 729T302 750H315H319Q333 750 333 741Q333 738 316 720T275 667T226 581T184 443T167 250T184 58T225 -81T274 -167T316 -220T333 -241Q333 -250 318 -250H315H302L274 -226Q180 -141 137 -14T94 250Z"></path>
<path stroke-width="1" id="E1-MJMATHI-78" d="M52 289Q59 331 106 386T222 442Q257 442 286 424T329 379Q371 442 430 442Q467 442 494 420T522 361Q522 332 508 314T481 292T458 288Q439 288 427 299T415 328Q415 374 465 391Q454 404 425 404Q412 404 406 402Q368 386 350 336Q290 115 290 78Q290 50 306 38T341 26Q378 26 414 59T463 140Q466 150 469 151T485 153H489Q504 153 504 145Q504 144 502 134Q486 77 440 33T333 -11Q263 -11 227 52Q186 -10 133 -10H127Q78 -10 57 16T35 71Q35 103 54 123T99 143Q142 143 142 101Q142 81 130 66T107 46T94 41L91 40Q91 39 97 36T113 29T132 26Q168 26 194 71Q203 87 217 139T245 247T261 313Q266 340 266 352Q266 380 251 392T217 404Q177 404 142 372T93 290Q91 281 88 280T72 278H58Q52 284 52 289Z"></path>
<path stroke-width="1" id="E1-MJMAIN-2C" d="M78 35T78 60T94 103T137 121Q165 121 187 96T210 8Q210 -27 201 -60T180 -117T154 -158T130 -185T117 -194Q113 -194 104 -185T95 -172Q95 -168 106 -156T131 -126T157 -76T173 -3V9L172 8Q170 7 167 6T161 3T152 1T140 0Q113 0 96 17Z"></path>
<path stroke-width="1" id="E1-MJMATHI-79" d="M21 287Q21 301 36 335T84 406T158 442Q199 442 224 419T250 355Q248 336 247 334Q247 331 231 288T198 191T182 105Q182 62 196 45T238 27Q261 27 281 38T312 61T339 94Q339 95 344 114T358 173T377 247Q415 397 419 404Q432 431 462 431Q475 431 483 424T494 412T496 403Q496 390 447 193T391 -23Q363 -106 294 -155T156 -205Q111 -205 77 -183T43 -117Q43 -95 50 -80T69 -58T89 -48T106 -45Q150 -45 150 -87Q150 -107 138 -122T115 -142T102 -147L99 -148Q101 -153 118 -160T152 -167H160Q177 -167 186 -165Q219 -156 247 -127T290 -65T313 -9T321 21L315 17Q309 13 296 6T270 -6Q250 -11 231 -11Q185 -11 150 11T104 82Q103 89 103 113Q103 170 138 262T173 379Q173 380 173 381Q173 390 173 393T169 400T158 404H154Q131 404 112 385T82 344T65 302T57 280Q55 278 41 278H27Q21 284 21 287Z"></path>
<path stroke-width="1" id="E1-MJMATHI-7A" d="M347 338Q337 338 294 349T231 360Q211 360 197 356T174 346T162 335T155 324L153 320Q150 317 138 317Q117 317 117 325Q117 330 120 339Q133 378 163 406T229 440Q241 442 246 442Q271 442 291 425T329 392T367 375Q389 375 411 408T434 441Q435 442 449 442H462Q468 436 468 434Q468 430 463 420T449 399T432 377T418 358L411 349Q368 298 275 214T160 106L148 94L163 93Q185 93 227 82T290 71Q328 71 360 90T402 140Q406 149 409 151T424 153Q443 153 443 143Q443 138 442 134Q425 72 376 31T278 -11Q252 -11 232 6T193 40T155 57Q111 57 76 -3Q70 -11 59 -11H54H41Q35 -5 35 -2Q35 13 93 84Q132 129 225 214T340 322Q352 338 347 338Z"></path>
<path stroke-width="1" id="E1-MJMAIN-29" d="M60 749L64 750Q69 750 74 750H86L114 726Q208 641 251 514T294 250Q294 182 284 119T261 12T224 -76T186 -143T145 -194T113 -227T90 -246Q87 -249 86 -250H74Q66 -250 63 -250T58 -247T55 -238Q56 -237 66 -225Q221 -64 221 250T66 725Q56 737 55 738Q55 746 60 749Z"></path>
<path stroke-width="1" id="E1-MJMAIN-3D" d="M56 347Q56 360 70 367H707Q722 359 722 347Q722 336 708 328L390 327H72Q56 332 56 347ZM56 153Q56 168 72 173H708Q722 163 722 153Q722 140 707 133H70Q56 140 56 153Z"></path>
<path stroke-width="1" id="E1-MJMAIN-2227" d="M318 591Q325 598 333 598Q344 598 348 591Q349 590 414 445T545 151T611 -4Q609 -22 591 -22Q588 -22 586 -21T581 -20T577 -17T575 -13T572 -9T570 -4L333 528L96 -4Q87 -20 80 -21Q78 -22 75 -22Q57 -22 55 -4Q55 2 120 150T251 444T318 591Z"></path>
<path stroke-width="1" id="E1-MJMAIN-2295" d="M56 250Q56 394 156 488T384 583Q530 583 626 485T722 250Q722 110 625 14T390 -83Q249 -83 153 14T56 250ZM364 542Q308 539 251 509T148 418T96 278V270H369V542H364ZM681 278Q675 338 650 386T592 462T522 509T458 535T412 542H409V270H681V278ZM96 222Q104 150 139 95T219 12T302 -29T366 -42H369V230H96V222ZM681 222V230H409V-42H412Q429 -42 456 -36T521 -10T590 37T649 113T681 222Z"></path>
<path stroke-width="1" id="E1-MJMAIN-AC" d="M56 323T56 336T70 356H596Q603 353 611 343V102Q598 89 591 89Q587 89 584 90T579 94T575 98T572 102L571 209V316H70Q56 323 56 336Z"></path>
<path stroke-width="1" id="E1-MJMATHI-4D" d="M289 629Q289 635 232 637Q208 637 201 638T194 648Q194 649 196 659Q197 662 198 666T199 671T201 676T203 679T207 681T212 683T220 683T232 684Q238 684 262 684T307 683Q386 683 398 683T414 678Q415 674 451 396L487 117L510 154Q534 190 574 254T662 394Q837 673 839 675Q840 676 842 678T846 681L852 683H948Q965 683 988 683T1017 684Q1051 684 1051 673Q1051 668 1048 656T1045 643Q1041 637 1008 637Q968 636 957 634T939 623Q936 618 867 340T797 59Q797 55 798 54T805 50T822 48T855 46H886Q892 37 892 35Q892 19 885 5Q880 0 869 0Q864 0 828 1T736 2Q675 2 644 2T609 1Q592 1 592 11Q592 13 594 25Q598 41 602 43T625 46Q652 46 685 49Q699 52 704 61Q706 65 742 207T813 490T848 631L654 322Q458 10 453 5Q451 4 449 3Q444 0 433 0Q418 0 415 7Q413 11 374 317L335 624L267 354Q200 88 200 79Q206 46 272 46H282Q288 41 289 37T286 19Q282 3 278 1Q274 0 267 0Q265 0 255 0T221 1T157 2Q127 2 95 1T58 0Q43 0 39 2T35 11Q35 13 38 25T43 40Q45 46 65 46Q135 46 154 86Q158 92 223 354T289 629Z"></path>
<path stroke-width="1" id="E1-MJMATHI-61" d="M33 157Q33 258 109 349T280 441Q331 441 370 392Q386 422 416 422Q429 422 439 414T449 394Q449 381 412 234T374 68Q374 43 381 35T402 26Q411 27 422 35Q443 55 463 131Q469 151 473 152Q475 153 483 153H487Q506 153 506 144Q506 138 501 117T481 63T449 13Q436 0 417 -8Q409 -10 393 -10Q359 -10 336 5T306 36L300 51Q299 52 296 50Q294 48 292 46Q233 -10 172 -10Q117 -10 75 30T33 157ZM351 328Q351 334 346 350T323 385T277 405Q242 405 210 374T160 293Q131 214 119 129Q119 126 119 118T118 106Q118 61 136 44T179 26Q217 26 254 59T298 110Q300 114 325 217T351 328Z"></path>
<path stroke-width="1" id="E1-MJMATHI-6A" d="M297 596Q297 627 318 644T361 661Q378 661 389 651T403 623Q403 595 384 576T340 557Q322 557 310 567T297 596ZM288 376Q288 405 262 405Q240 405 220 393T185 362T161 325T144 293L137 279Q135 278 121 278H107Q101 284 101 286T105 299Q126 348 164 391T252 441Q253 441 260 441T272 442Q296 441 316 432Q341 418 354 401T367 348V332L318 133Q267 -67 264 -75Q246 -125 194 -164T75 -204Q25 -204 7 -183T-12 -137Q-12 -110 7 -91T53 -71Q70 -71 82 -81T95 -112Q95 -148 63 -167Q69 -168 77 -168Q111 -168 139 -140T182 -74L193 -32Q204 11 219 72T251 197T278 308T289 365Q289 372 288 376Z"></path>
<path stroke-width="1" id="E1-MJMAIN-3A3" d="M666 247Q664 244 652 126T638 4V0H351Q131 0 95 0T57 5V6Q54 12 57 17L73 36Q89 54 121 90T182 159L305 299L56 644L55 658Q55 677 60 681Q63 683 351 683H638V679Q640 674 652 564T666 447V443H626V447Q618 505 604 543T559 605Q529 626 478 631T333 637H294H189L293 494Q314 465 345 422Q400 346 400 340Q400 338 399 337L154 57Q407 57 428 58Q476 60 508 68T551 83T575 103Q595 125 608 162T624 225L626 251H666V247Z"></path>
<path stroke-width="1" id="E1-MJMAIN-30" d="M96 585Q152 666 249 666Q297 666 345 640T423 548Q460 465 460 320Q460 165 417 83Q397 41 362 16T301 -15T250 -22Q224 -22 198 -16T137 16T82 83Q39 165 39 320Q39 494 96 585ZM321 597Q291 629 250 629Q208 629 178 597Q153 571 145 525T137 333Q137 175 145 125T181 46Q209 16 250 16Q290 16 318 46Q347 76 354 130T362 333Q362 478 354 524T321 597Z"></path>
<path stroke-width="1" id="E1-MJMATHI-53" d="M308 24Q367 24 416 76T466 197Q466 260 414 284Q308 311 278 321T236 341Q176 383 176 462Q176 523 208 573T273 648Q302 673 343 688T407 704H418H425Q521 704 564 640Q565 640 577 653T603 682T623 704Q624 704 627 704T632 705Q645 705 645 698T617 577T585 459T569 456Q549 456 549 465Q549 471 550 475Q550 478 551 494T553 520Q553 554 544 579T526 616T501 641Q465 662 419 662Q362 662 313 616T263 510Q263 480 278 458T319 427Q323 425 389 408T456 390Q490 379 522 342T554 242Q554 216 546 186Q541 164 528 137T492 78T426 18T332 -20Q320 -22 298 -22Q199 -22 144 33L134 44L106 13Q83 -14 78 -18T65 -22Q52 -22 52 -14Q52 -11 110 221Q112 227 130 227H143Q149 221 149 216Q149 214 148 207T144 186T142 153Q144 114 160 87T203 47T255 29T308 24Z"></path>
<path stroke-width="1" id="E1-MJMAIN-32" d="M109 429Q82 429 66 447T50 491Q50 562 103 614T235 666Q326 666 387 610T449 465Q449 422 429 383T381 315T301 241Q265 210 201 149L142 93L218 92Q375 92 385 97Q392 99 409 186V189H449V186Q448 183 436 95T421 3V0H50V19V31Q50 38 56 46T86 81Q115 113 136 137Q145 147 170 174T204 211T233 244T261 278T284 308T305 340T320 369T333 401T340 431T343 464Q343 527 309 573T212 619Q179 619 154 602T119 569T109 550Q109 549 114 549Q132 549 151 535T170 489Q170 464 154 447T109 429Z"></path>
<path stroke-width="1" id="E1-MJMAIN-31" d="M213 578L200 573Q186 568 160 563T102 556H83V602H102Q149 604 189 617T245 641T273 663Q275 666 285 666Q294 666 302 660V361L303 61Q310 54 315 52T339 48T401 46H427V0H416Q395 3 257 3Q121 3 100 0H88V46H114Q136 46 152 46T177 47T193 50T201 52T207 57T213 61V578Z"></path>
<path stroke-width="1" id="E1-MJMAIN-33" d="M127 463Q100 463 85 480T69 524Q69 579 117 622T233 665Q268 665 277 664Q351 652 390 611T430 522Q430 470 396 421T302 350L299 348Q299 347 308 345T337 336T375 315Q457 262 457 175Q457 96 395 37T238 -22Q158 -22 100 21T42 130Q42 158 60 175T105 193Q133 193 151 175T169 130Q169 119 166 110T159 94T148 82T136 74T126 70T118 67L114 66Q165 21 238 21Q293 21 321 74Q338 107 338 175V195Q338 290 274 322Q259 328 213 329L171 330L168 332Q166 335 166 348Q166 366 174 366Q202 366 232 371Q266 376 294 413T322 525V533Q322 590 287 612Q265 626 240 626Q208 626 181 615T143 592T132 580H135Q138 579 143 578T153 573T165 566T175 555T183 540T186 520Q186 498 172 481T127 463Z"></path>
<path stroke-width="1" id="E1-MJMAIN-36" d="M42 313Q42 476 123 571T303 666Q372 666 402 630T432 550Q432 525 418 510T379 495Q356 495 341 509T326 548Q326 592 373 601Q351 623 311 626Q240 626 194 566Q147 500 147 364L148 360Q153 366 156 373Q197 433 263 433H267Q313 433 348 414Q372 400 396 374T435 317Q456 268 456 210V192Q456 169 451 149Q440 90 387 34T253 -22Q225 -22 199 -14T143 16T92 75T56 172T42 313ZM257 397Q227 397 205 380T171 335T154 278T148 216Q148 133 160 97T198 39Q222 21 251 21Q302 21 329 59Q342 77 347 104T352 209Q352 289 347 316T329 361Q302 397 257 397Z"></path>
<path stroke-width="1" id="E1-MJMAIN-35" d="M164 157Q164 133 148 117T109 101H102Q148 22 224 22Q294 22 326 82Q345 115 345 210Q345 313 318 349Q292 382 260 382H254Q176 382 136 314Q132 307 129 306T114 304Q97 304 95 310Q93 314 93 485V614Q93 664 98 664Q100 666 102 666Q103 666 123 658T178 642T253 634Q324 634 389 662Q397 666 402 666Q410 666 410 648V635Q328 538 205 538Q174 538 149 544L139 546V374Q158 388 169 396T205 412T256 420Q337 420 393 355T449 201Q449 109 385 44T229 -22Q148 -22 99 32T50 154Q50 178 61 192T84 210T107 214Q132 214 148 197T164 157Z"></path>
<path stroke-width="1" id="E1-MJMATHI-3C3" d="M184 -11Q116 -11 74 34T31 147Q31 247 104 333T274 430Q275 431 414 431H552Q553 430 555 429T559 427T562 425T565 422T567 420T569 416T570 412T571 407T572 401Q572 357 507 357Q500 357 490 357T476 358H416L421 348Q439 310 439 263Q439 153 359 71T184 -11ZM361 278Q361 358 276 358Q152 358 115 184Q114 180 114 178Q106 141 106 117Q106 67 131 47T188 26Q242 26 287 73Q316 103 334 153T356 233T361 278Z"></path>
<path stroke-width="1" id="E1-MJMAIN-37" d="M55 458Q56 460 72 567L88 674Q88 676 108 676H128V672Q128 662 143 655T195 646T364 644H485V605L417 512Q408 500 387 472T360 435T339 403T319 367T305 330T292 284T284 230T278 162T275 80Q275 66 275 52T274 28V19Q270 2 255 -10T221 -22Q210 -22 200 -19T179 0T168 40Q168 198 265 368Q285 400 349 489L395 552H302Q128 552 119 546Q113 543 108 522T98 479L95 458V455H55V458Z"></path>
<path stroke-width="1" id="E1-MJMAIN-38" d="M70 417T70 494T124 618T248 666Q319 666 374 624T429 515Q429 485 418 459T392 417T361 389T335 371T324 363L338 354Q352 344 366 334T382 323Q457 264 457 174Q457 95 399 37T249 -22Q159 -22 101 29T43 155Q43 263 172 335L154 348Q133 361 127 368Q70 417 70 494ZM286 386L292 390Q298 394 301 396T311 403T323 413T334 425T345 438T355 454T364 471T369 491T371 513Q371 556 342 586T275 624Q268 625 242 625Q201 625 165 599T128 534Q128 511 141 492T167 463T217 431Q224 426 228 424L286 386ZM250 21Q308 21 350 55T392 137Q392 154 387 169T375 194T353 216T330 234T301 253T274 270Q260 279 244 289T218 306L210 311Q204 311 181 294T133 239T107 157Q107 98 150 60T250 21Z"></path>
<path stroke-width="1" id="E1-MJMATHI-52" d="M230 637Q203 637 198 638T193 649Q193 676 204 682Q206 683 378 683Q550 682 564 680Q620 672 658 652T712 606T733 563T739 529Q739 484 710 445T643 385T576 351T538 338L545 333Q612 295 612 223Q612 212 607 162T602 80V71Q602 53 603 43T614 25T640 16Q668 16 686 38T712 85Q717 99 720 102T735 105Q755 105 755 93Q755 75 731 36Q693 -21 641 -21H632Q571 -21 531 4T487 82Q487 109 502 166T517 239Q517 290 474 313Q459 320 449 321T378 323H309L277 193Q244 61 244 59Q244 55 245 54T252 50T269 48T302 46H333Q339 38 339 37T336 19Q332 6 326 0H311Q275 2 180 2Q146 2 117 2T71 2T50 1Q33 1 33 10Q33 12 36 24Q41 43 46 45Q50 46 61 46H67Q94 46 127 49Q141 52 146 61Q149 65 218 339T287 628Q287 635 230 637ZM630 554Q630 586 609 608T523 636Q521 636 500 636T462 637H440Q393 637 386 627Q385 624 352 494T319 361Q319 360 388 360Q466 361 492 367Q556 377 592 426Q608 449 619 486T630 554Z"></path>
<path stroke-width="1" id="E1-MJMAIN-39" d="M352 287Q304 211 232 211Q154 211 104 270T44 396Q42 412 42 436V444Q42 537 111 606Q171 666 243 666Q245 666 249 666T257 665H261Q273 665 286 663T323 651T370 619T413 560Q456 472 456 334Q456 194 396 97Q361 41 312 10T208 -22Q147 -22 108 7T68 93T121 149Q143 149 158 135T173 96Q173 78 164 65T148 49T135 44L131 43Q131 41 138 37T164 27T206 22H212Q272 22 313 86Q352 142 352 280V287ZM244 248Q292 248 321 297T351 430Q351 508 343 542Q341 552 337 562T323 588T293 615T246 625Q208 625 181 598Q160 576 154 546T147 441Q147 358 152 329T172 282Q197 248 244 248Z"></path>
</defs>
<g stroke="currentColor" fill="currentColor" stroke-width="0" transform="matrix(1 0 0 -1 0 0)">
<g transform="translate(7246,0)">
<g transform="translate(167,0)">
<g transform="translate(-11,0)">
<g transform="translate(399,3551)">
 <use xlink:href="#E1-MJMATHI-43" x="0" y="0"></use>
 <use xlink:href="#E1-MJMATHI-68" x="760" y="0"></use>
 <use xlink:href="#E1-MJMAIN-28" x="1337" y="0"></use>
 <use xlink:href="#E1-MJMATHI-78" x="1726" y="0"></use>
 <use xlink:href="#E1-MJMAIN-2C" x="2299" y="0"></use>
 <use xlink:href="#E1-MJMATHI-79" x="2744" y="0"></use>
 <use xlink:href="#E1-MJMAIN-2C" x="3241" y="0"></use>
 <use xlink:href="#E1-MJMATHI-7A" x="3686" y="0"></use>
 <use xlink:href="#E1-MJMAIN-29" x="4155" y="0"></use>
</g>
<g transform="translate(0,2200)">
 <use xlink:href="#E1-MJMATHI-4D" x="0" y="0"></use>
<g transform="translate(970,-150)">
 <use transform="scale(0.707)" xlink:href="#E1-MJMATHI-61" x="0" y="0"></use>
 <use transform="scale(0.707)" xlink:href="#E1-MJMATHI-6A" x="529" y="0"></use>
</g>
 <use xlink:href="#E1-MJMAIN-28" x="1736" y="0"></use>
 <use xlink:href="#E1-MJMATHI-78" x="2126" y="0"></use>
 <use xlink:href="#E1-MJMAIN-2C" x="2698" y="0"></use>
 <use xlink:href="#E1-MJMATHI-79" x="3143" y="0"></use>
 <use xlink:href="#E1-MJMAIN-2C" x="3641" y="0"></use>
 <use xlink:href="#E1-MJMATHI-7A" x="4086" y="0"></use>
 <use xlink:href="#E1-MJMAIN-29" x="4554" y="0"></use>
</g>
<g transform="translate(2416,720)">
 <use xlink:href="#E1-MJMAIN-3A3" x="0" y="0"></use>
 <use transform="scale(0.707)" xlink:href="#E1-MJMAIN-30" x="1021" y="-213"></use>
 <use xlink:href="#E1-MJMAIN-28" x="1176" y="0"></use>
 <use xlink:href="#E1-MJMATHI-78" x="1565" y="0"></use>
 <use xlink:href="#E1-MJMAIN-29" x="2138" y="0"></use>
</g>
<g transform="translate(2416,-715)">
 <use xlink:href="#E1-MJMAIN-3A3" x="0" y="0"></use>
 <use transform="scale(0.707)" xlink:href="#E1-MJMAIN-31" x="1021" y="-213"></use>
 <use xlink:href="#E1-MJMAIN-28" x="1176" y="0"></use>
 <use xlink:href="#E1-MJMATHI-78" x="1565" y="0"></use>
 <use xlink:href="#E1-MJMAIN-29" x="2138" y="0"></use>
</g>
<g transform="translate(2567,-2158)">
 <use xlink:href="#E1-MJMATHI-3C3" x="0" y="0"></use>
 <use transform="scale(0.707)" xlink:href="#E1-MJMAIN-30" x="808" y="-213"></use>
 <use xlink:href="#E1-MJMAIN-28" x="1025" y="0"></use>
 <use xlink:href="#E1-MJMATHI-78" x="1414" y="0"></use>
 <use xlink:href="#E1-MJMAIN-29" x="1987" y="0"></use>
</g>
<g transform="translate(2567,-3601)">
 <use xlink:href="#E1-MJMATHI-3C3" x="0" y="0"></use>
 <use transform="scale(0.707)" xlink:href="#E1-MJMAIN-31" x="808" y="-213"></use>
 <use xlink:href="#E1-MJMAIN-28" x="1025" y="0"></use>
 <use xlink:href="#E1-MJMATHI-78" x="1414" y="0"></use>
 <use xlink:href="#E1-MJMAIN-29" x="1987" y="0"></use>
</g>
</g>
<g transform="translate(4933,0)">
<g transform="translate(0,3551)">
 <use xlink:href="#E1-MJMAIN-3D" x="277" y="0"></use>
 <use xlink:href="#E1-MJMAIN-28" x="1334" y="0"></use>
 <use xlink:href="#E1-MJMATHI-78" x="1723" y="0"></use>
 <use xlink:href="#E1-MJMAIN-2227" x="2518" y="0"></use>
 <use xlink:href="#E1-MJMATHI-79" x="3408" y="0"></use>
 <use xlink:href="#E1-MJMAIN-29" x="3905" y="0"></use>
 <use xlink:href="#E1-MJMAIN-2295" x="4517" y="0"></use>
 <use xlink:href="#E1-MJMAIN-28" x="5517" y="0"></use>
 <use xlink:href="#E1-MJMAIN-AC" x="5907" y="0"></use>
 <use xlink:href="#E1-MJMATHI-78" x="6574" y="0"></use>
 <use xlink:href="#E1-MJMAIN-2227" x="7369" y="0"></use>
 <use xlink:href="#E1-MJMATHI-7A" x="8259" y="0"></use>
 <use xlink:href="#E1-MJMAIN-29" x="8727" y="0"></use>
</g>
<g transform="translate(0,2200)">
 <use xlink:href="#E1-MJMAIN-3D" x="277" y="0"></use>
 <use xlink:href="#E1-MJMAIN-28" x="1334" y="0"></use>
 <use xlink:href="#E1-MJMATHI-78" x="1723" y="0"></use>
 <use xlink:href="#E1-MJMAIN-2227" x="2518" y="0"></use>
 <use xlink:href="#E1-MJMATHI-79" x="3408" y="0"></use>
 <use xlink:href="#E1-MJMAIN-29" x="3905" y="0"></use>
 <use xlink:href="#E1-MJMAIN-2295" x="4517" y="0"></use>
 <use xlink:href="#E1-MJMAIN-28" x="5517" y="0"></use>
 <use xlink:href="#E1-MJMATHI-78" x="5907" y="0"></use>
 <use xlink:href="#E1-MJMAIN-2227" x="6702" y="0"></use>
 <use xlink:href="#E1-MJMATHI-7A" x="7591" y="0"></use>
 <use xlink:href="#E1-MJMAIN-29" x="8060" y="0"></use>
 <use xlink:href="#E1-MJMAIN-2295" x="8672" y="0"></use>
 <use xlink:href="#E1-MJMAIN-28" x="9672" y="0"></use>
 <use xlink:href="#E1-MJMATHI-79" x="10062" y="0"></use>
 <use xlink:href="#E1-MJMAIN-2227" x="10782" y="0"></use>
 <use xlink:href="#E1-MJMATHI-7A" x="11671" y="0"></use>
 <use xlink:href="#E1-MJMAIN-29" x="12140" y="0"></use>
</g>
<g transform="translate(0,720)">
 <use xlink:href="#E1-MJMAIN-3D" x="277" y="0"></use>
<g transform="translate(1334,0)">
 <use xlink:href="#E1-MJMATHI-53" x="0" y="0"></use>
 <use transform="scale(0.707)" xlink:href="#E1-MJMAIN-32" x="926" y="583"></use>
</g>
 <use xlink:href="#E1-MJMAIN-28" x="2443" y="0"></use>
 <use xlink:href="#E1-MJMATHI-78" x="2832" y="0"></use>
 <use xlink:href="#E1-MJMAIN-29" x="3405" y="0"></use>
 <use xlink:href="#E1-MJMAIN-2295" x="4016" y="0"></use>
<g transform="translate(5017,0)">
 <use xlink:href="#E1-MJMATHI-53" x="0" y="0"></use>
<g transform="translate(655,412)">
 <use transform="scale(0.707)" xlink:href="#E1-MJMAIN-31"></use>
 <use transform="scale(0.707)" xlink:href="#E1-MJMAIN-33" x="500" y="0"></use>
</g>
</g>
 <use xlink:href="#E1-MJMAIN-28" x="6480" y="0"></use>
 <use xlink:href="#E1-MJMATHI-78" x="6870" y="0"></use>
 <use xlink:href="#E1-MJMAIN-29" x="7442" y="0"></use>
 <use xlink:href="#E1-MJMAIN-2295" x="8054" y="0"></use>
<g transform="translate(9054,0)">
 <use xlink:href="#E1-MJMATHI-53" x="0" y="0"></use>
<g transform="translate(655,412)">
 <use transform="scale(0.707)" xlink:href="#E1-MJMAIN-32"></use>
 <use transform="scale(0.707)" xlink:href="#E1-MJMAIN-32" x="500" y="0"></use>
</g>
</g>
 <use xlink:href="#E1-MJMAIN-28" x="10517" y="0"></use>
 <use xlink:href="#E1-MJMATHI-78" x="10907" y="0"></use>
 <use xlink:href="#E1-MJMAIN-29" x="11479" y="0"></use>
</g>
<g transform="translate(0,-715)">
 <use xlink:href="#E1-MJMAIN-3D" x="277" y="0"></use>
<g transform="translate(1334,0)">
 <use xlink:href="#E1-MJMATHI-53" x="0" y="0"></use>
 <use transform="scale(0.707)" xlink:href="#E1-MJMAIN-36" x="926" y="583"></use>
</g>
 <use xlink:href="#E1-MJMAIN-28" x="2443" y="0"></use>
 <use xlink:href="#E1-MJMATHI-78" x="2832" y="0"></use>
 <use xlink:href="#E1-MJMAIN-29" x="3405" y="0"></use>
 <use xlink:href="#E1-MJMAIN-2295" x="4016" y="0"></use>
<g transform="translate(5017,0)">
 <use xlink:href="#E1-MJMATHI-53" x="0" y="0"></use>
<g transform="translate(655,412)">
 <use transform="scale(0.707)" xlink:href="#E1-MJMAIN-31"></use>
 <use transform="scale(0.707)" xlink:href="#E1-MJMAIN-31" x="500" y="0"></use>
</g>
</g>
 <use xlink:href="#E1-MJMAIN-28" x="6480" y="0"></use>
 <use xlink:href="#E1-MJMATHI-78" x="6870" y="0"></use>
 <use xlink:href="#E1-MJMAIN-29" x="7442" y="0"></use>
 <use xlink:href="#E1-MJMAIN-2295" x="8054" y="0"></use>
<g transform="translate(9054,0)">
 <use xlink:href="#E1-MJMATHI-53" x="0" y="0"></use>
<g transform="translate(655,412)">
 <use transform="scale(0.707)" xlink:href="#E1-MJMAIN-32"></use>
 <use transform="scale(0.707)" xlink:href="#E1-MJMAIN-35" x="500" y="0"></use>
</g>
</g>
 <use xlink:href="#E1-MJMAIN-28" x="10517" y="0"></use>
 <use xlink:href="#E1-MJMATHI-78" x="10907" y="0"></use>
 <use xlink:href="#E1-MJMAIN-29" x="11479" y="0"></use>
</g>
<g transform="translate(0,-2158)">
 <use xlink:href="#E1-MJMAIN-3D" x="277" y="0"></use>
<g transform="translate(1334,0)">
 <use xlink:href="#E1-MJMATHI-53" x="0" y="0"></use>
 <use transform="scale(0.707)" xlink:href="#E1-MJMAIN-37" x="926" y="583"></use>
</g>
 <use xlink:href="#E1-MJMAIN-28" x="2443" y="0"></use>
 <use xlink:href="#E1-MJMATHI-78" x="2832" y="0"></use>
 <use xlink:href="#E1-MJMAIN-29" x="3405" y="0"></use>
 <use xlink:href="#E1-MJMAIN-2295" x="4016" y="0"></use>
<g transform="translate(5017,0)">
 <use xlink:href="#E1-MJMATHI-53" x="0" y="0"></use>
<g transform="translate(655,412)">
 <use transform="scale(0.707)" xlink:href="#E1-MJMAIN-31"></use>
 <use transform="scale(0.707)" xlink:href="#E1-MJMAIN-38" x="500" y="0"></use>
</g>
</g>
 <use xlink:href="#E1-MJMAIN-28" x="6480" y="0"></use>
 <use xlink:href="#E1-MJMATHI-78" x="6870" y="0"></use>
 <use xlink:href="#E1-MJMAIN-29" x="7442" y="0"></use>
 <use xlink:href="#E1-MJMAIN-2295" x="8054" y="0"></use>
<g transform="translate(9054,0)">
 <use xlink:href="#E1-MJMATHI-52" x="0" y="0"></use>
 <use transform="scale(0.707)" xlink:href="#E1-MJMAIN-33" x="1074" y="583"></use>
</g>
 <use xlink:href="#E1-MJMAIN-28" x="10268" y="0"></use>
 <use xlink:href="#E1-MJMATHI-78" x="10657" y="0"></use>
 <use xlink:href="#E1-MJMAIN-29" x="11230" y="0"></use>
</g>
<g transform="translate(0,-3601)">
 <use xlink:href="#E1-MJMAIN-3D" x="277" y="0"></use>
<g transform="translate(1334,0)">
 <use xlink:href="#E1-MJMATHI-53" x="0" y="0"></use>
<g transform="translate(655,412)">
 <use transform="scale(0.707)" xlink:href="#E1-MJMAIN-31"></use>
 <use transform="scale(0.707)" xlink:href="#E1-MJMAIN-37" x="500" y="0"></use>
</g>
</g>
 <use xlink:href="#E1-MJMAIN-28" x="2797" y="0"></use>
 <use xlink:href="#E1-MJMATHI-78" x="3186" y="0"></use>
 <use xlink:href="#E1-MJMAIN-29" x="3759" y="0"></use>
 <use xlink:href="#E1-MJMAIN-2295" x="4370" y="0"></use>
<g transform="translate(5371,0)">
 <use xlink:href="#E1-MJMATHI-53" x="0" y="0"></use>
<g transform="translate(655,412)">
 <use transform="scale(0.707)" xlink:href="#E1-MJMAIN-31"></use>
 <use transform="scale(0.707)" xlink:href="#E1-MJMAIN-39" x="500" y="0"></use>
</g>
</g>
 <use xlink:href="#E1-MJMAIN-28" x="6834" y="0"></use>
 <use xlink:href="#E1-MJMATHI-78" x="7223" y="0"></use>
 <use xlink:href="#E1-MJMAIN-29" x="7796" y="0"></use>
 <use xlink:href="#E1-MJMAIN-2295" x="8408" y="0"></use>
<g transform="translate(9408,0)">
 <use xlink:href="#E1-MJMATHI-52" x="0" y="0"></use>
<g transform="translate(759,412)">
 <use transform="scale(0.707)" xlink:href="#E1-MJMAIN-31"></use>
 <use transform="scale(0.707)" xlink:href="#E1-MJMAIN-30" x="500" y="0"></use>
</g>
</g>
 <use xlink:href="#E1-MJMAIN-28" x="10976" y="0"></use>
 <use xlink:href="#E1-MJMATHI-78" x="11365" y="0"></use>
 <use xlink:href="#E1-MJMAIN-29" x="11938" y="0"></use>
</g>
</g>
</g>
</g>
</g>
</svg>